{"asset":{"version":"2.0","generator":"Blockbench 4.12.6 glTF exporter"},"scenes":[{"nodes":[1],"name":"blockbench_export"}],"scene":0,"nodes":[{"name":"plane","mesh":0},{"children":[0]}],"bufferViews":[{"buffer":0,"byteOffset":0,"byteLength":9480,"target":34962,"byteStride":12},{"buffer":0,"byteOffset":9480,"byteLength":9480,"target":34962,"byteStride":12},{"buffer":0,"byteOffset":18960,"byteLength":6320,"target":34962,"byteStride":8},{"buffer":0,"byteOffset":25280,"byteLength":2328,"target":34963}],"buffers":[{"byteLength":27608,"uri":"data:application/octet-stream;base64,"}],"accessors":[{"bufferView":0,"componentType":5126,"count":790,"max":[72,106,72],"min":[-72,-16,-88],"type":"VEC3"},{"bufferView":1,"componentType":5126,"count":790,"max":[1,1,1],"min":[-1,-0.9701424837112427,-1],"type":"VEC3"},{"bufferView":2,"componentType":5126,"count":790,"max":[0.984375,0.796875],"min":[0.015625,0.015625],"type":"VEC2"},{"bufferView":3,"componentType":5123,"count":1164,"max":[789],"min":[0],"type":"SCALAR"}],"materials":[{"pbrMetallicRoughness":{"metallicFactor":0,"roughnessFactor":1,"baseColorTexture":{"index":0}},"alphaMode":"MASK","alphaCutoff":0.05,"doubleSided":true}],"textures":[{"sampler":0,"source":0,"name":"map1tex.png"}],"samplers":[{"magFilter":9728,"minFilter":9728,"wrapS":33071,"wrapT":33071}],"images":[{"mimeType":"image/png","uri":"data:image/png;base64,"}],"meshes":[{"primitives":[{"mode":4,"attributes":{"POSITION":0,"NORMAL":1,"TEXCOORD_0":2},"indices":3,"material":0}]}]}