{"asset":{"version":"2.0","generator":"Blockbench 5.0.2 glTF exporter"},"scenes":[{"nodes":[0],"name":"blockbench_export"}],"scene":0,"nodes":[{"name":"plane","mesh":0}],"bufferViews":[{"buffer":0,"byteOffset":0,"byteLength":19776,"target":34962,"byteStride":12},{"buffer":0,"byteOffset":19776,"byteLength":19776,"target":34962,"byteStride":12},{"buffer":0,"byteOffset":39552,"byteLength":13184,"target":34962,"byteStride":8},{"buffer":0,"byteOffset":52736,"byteLength":108,"target":34963},{"buffer":0,"byteOffset":52844,"byteLength":12,"target":34963},{"buffer":0,"byteOffset":52856,"byteLength":24,"target":34963},{"buffer":0,"byteOffset":52880,"byteLength":12,"target":34963},{"buffer":0,"byteOffset":52892,"byteLength":24,"target":34963},{"buffer":0,"byteOffset":52916,"byteLength":12,"target":34963},{"buffer":0,"byteOffset":52928,"byteLength":24,"target":34963},{"buffer":0,"byteOffset":52952,"byteLength":12,"target":34963},{"buffer":0,"byteOffset":52964,"byteLength":24,"target":34963},{"buffer":0,"byteOffset":52988,"byteLength":36,"target":34963},{"buffer":0,"byteOffset":53024,"byteLength":12,"target":34963},{"buffer":0,"byteOffset":53036,"byteLength":36,"target":34963},{"buffer":0,"byteOffset":53072,"byteLength":288,"target":34963},{"buffer":0,"byteOffset":53360,"byteLength":48,"target":34963},{"buffer":0,"byteOffset":53408,"byteLength":204,"target":34963},{"buffer":0,"byteOffset":53612,"byteLength":12,"target":34963},{"buffer":0,"byteOffset":53624,"byteLength":12,"target":34963},{"buffer":0,"byteOffset":53636,"byteLength":12,"target":34963},{"buffer":0,"byteOffset":53648,"byteLength":12,"target":34963},{"buffer":0,"byteOffset":53660,"byteLength":12,"target":34963},{"buffer":0,"byteOffset":53672,"byteLength":60,"target":34963},{"buffer":0,"byteOffset":53732,"byteLength":12,"target":34963},{"buffer":0,"byteOffset":53744,"byteLength":12,"target":34963},{"buffer":0,"byteOffset":53756,"byteLength":12,"target":34963},{"buffer":0,"byteOffset":53768,"byteLength":12,"target":34963},{"buffer":0,"byteOffset":53780,"byteLength":12,"target":34963},{"buffer":0,"byteOffset":53792,"byteLength":60,"target":34963},{"buffer":0,"byteOffset":53852,"byteLength":12,"target":34963},{"buffer":0,"byteOffset":53864,"byteLength":12,"target":34963},{"buffer":0,"byteOffset":53876,"byteLength":12,"target":34963},{"buffer":0,"byteOffset":53888,"byteLength":12,"target":34963},{"buffer":0,"byteOffset":53900,"byteLength":12,"target":34963},{"buffer":0,"byteOffset":53912,"byteLength":228,"target":34963},{"buffer":0,"byteOffset":54140,"byteLength":12,"target":34963},{"buffer":0,"byteOffset":54152,"byteLength":12,"target":34963},{"buffer":0,"byteOffset":54164,"byteLength":12,"target":34963},{"buffer":0,"byteOffset":54176,"byteLength":192,"target":34963},{"buffer":0,"byteOffset":54368,"byteLength":12,"target":34963},{"buffer":0,"byteOffset":54380,"byteLength":12,"target":34963},{"buffer":0,"byteOffset":54392,"byteLength":12,"target":34963},{"buffer":0,"byteOffset":54404,"byteLength":192,"target":34963},{"buffer":0,"byteOffset":54596,"byteLength":12,"target":34963},{"buffer":0,"byteOffset":54608,"byteLength":12,"target":34963},{"buffer":0,"byteOffset":54620,"byteLength":12,"target":34963},{"buffer":0,"byteOffset":54632,"byteLength":336,"target":34963},{"buffer":0,"byteOffset":54968,"byteLength":108,"target":34963},{"buffer":0,"byteOffset":55076,"byteLength":12,"target":34963},{"buffer":0,"byteOffset":55088,"byteLength":24,"target":34963},{"buffer":0,"byteOffset":55112,"byteLength":12,"target":34963},{"buffer":0,"byteOffset":55124,"byteLength":24,"target":34963},{"buffer":0,"byteOffset":55148,"byteLength":12,"target":34963},{"buffer":0,"byteOffset":55160,"byteLength":24,"target":34963},{"buffer":0,"byteOffset":55184,"byteLength":12,"target":34963},{"buffer":0,"byteOffset":55196,"byteLength":24,"target":34963},{"buffer":0,"byteOffset":55220,"byteLength":36,"target":34963},{"buffer":0,"byteOffset":55256,"byteLength":12,"target":34963},{"buffer":0,"byteOffset":55268,"byteLength":36,"target":34963},{"buffer":0,"byteOffset":55304,"byteLength":288,"target":34963},{"buffer":0,"byteOffset":55592,"byteLength":96,"target":34963},{"buffer":0,"byteOffset":55688,"byteLength":204,"target":34963},{"buffer":0,"byteOffset":55892,"byteLength":12,"target":34963},{"buffer":0,"byteOffset":55904,"byteLength":12,"target":34963},{"buffer":0,"byteOffset":55916,"byteLength":12,"target":34963},{"buffer":0,"byteOffset":55928,"byteLength":12,"target":34963},{"buffer":0,"byteOffset":55940,"byteLength":12,"target":34963},{"buffer":0,"byteOffset":55952,"byteLength":60,"target":34963},{"buffer":0,"byteOffset":56012,"byteLength":12,"target":34963},{"buffer":0,"byteOffset":56024,"byteLength":12,"target":34963},{"buffer":0,"byteOffset":56036,"byteLength":12,"target":34963},{"buffer":0,"byteOffset":56048,"byteLength":12,"target":34963},{"buffer":0,"byteOffset":56060,"byteLength":12,"target":34963},{"buffer":0,"byteOffset":56072,"byteLength":60,"target":34963},{"buffer":0,"byteOffset":56132,"byteLength":12,"target":34963},{"buffer":0,"byteOffset":56144,"byteLength":12,"target":34963},{"buffer":0,"byteOffset":56156,"byteLength":12,"target":34963},{"buffer":0,"byteOffset":56168,"byteLength":12,"target":34963},{"buffer":0,"byteOffset":56180,"byteLength":12,"target":34963},{"buffer":0,"byteOffset":56192,"byteLength":204,"target":34963},{"buffer":0,"byteOffset":56396,"byteLength":12,"target":34963},{"buffer":0,"byteOffset":56408,"byteLength":36,"target":34963},{"buffer":0,"byteOffset":56444,"byteLength":12,"target":34963},{"buffer":0,"byteOffset":56456,"byteLength":168,"target":34963},{"buffer":0,"byteOffset":56624,"byteLength":12,"target":34963},{"buffer":0,"byteOffset":56636,"byteLength":36,"target":34963},{"buffer":0,"byteOffset":56672,"byteLength":12,"target":34963},{"buffer":0,"byteOffset":56684,"byteLength":168,"target":34963},{"buffer":0,"byteOffset":56852,"byteLength":12,"target":34963},{"buffer":0,"byteOffset":56864,"byteLength":36,"target":34963},{"buffer":0,"byteOffset":56900,"byteLength":12,"target":34963},{"buffer":0,"byteOffset":56912,"byteLength":720,"target":34963},{"buffer":0,"byteOffset":57632,"byteLength":48,"target":34963}],"buffers":[{"byteLength":57680,"uri":"data:application/octet-stream;base64,"}],"accessors":[{"bufferView":0,"componentType":5126,"count":1648,"max":[5,4,5],"min":[-5,0,-5],"type":"VEC3"},{"bufferView":1,"componentType":5126,"count":1648,"max":[1,1,1],"min":[-1,0,-1],"type":"VEC3"},{"bufferView":2,"componentType":5126,"count":1648,"max":[1,1],"min":[0,0],"type":"VEC2"},{"bufferView":3,"componentType":5123,"count":54,"max":[35],"min":[0],"type":"SCALAR"},{"bufferView":4,"componentType":5123,"count":6,"max":[39],"min":[36],"type":"SCALAR"},{"bufferView":5,"componentType":5123,"count":12,"max":[47],"min":[40],"type":"SCALAR"},{"bufferView":6,"componentType":5123,"count":6,"max":[51],"min":[48],"type":"SCALAR"},{"bufferView":7,"componentType":5123,"count":12,"max":[59],"min":[52],"type":"SCALAR"},{"bufferView":8,"componentType":5123,"count":6,"max":[63],"min":[60],"type":"SCALAR"},{"bufferView":9,"componentType":5123,"count":12,"max":[71],"min":[64],"type":"SCALAR"},{"bufferView":10,"componentType":5123,"count":6,"max":[75],"min":[72],"type":"SCALAR"},{"bufferView":11,"componentType":5123,"count":12,"max":[83],"min":[76],"type":"SCALAR"},{"bufferView":12,"componentType":5123,"count":18,"max":[95],"min":[84],"type":"SCALAR"},{"bufferView":13,"componentType":5123,"count":6,"max":[99],"min":[96],"type":"SCALAR"},{"bufferView":14,"componentType":5123,"count":18,"max":[111],"min":[100],"type":"SCALAR"},{"bufferView":15,"componentType":5123,"count":144,"max":[207],"min":[112],"type":"SCALAR"},{"bufferView":16,"componentType":5123,"count":24,"max":[223],"min":[208],"type":"SCALAR"},{"bufferView":17,"componentType":5123,"count":102,"max":[291],"min":[224],"type":"SCALAR"},{"bufferView":18,"componentType":5123,"count":6,"max":[295],"min":[292],"type":"SCALAR"},{"bufferView":19,"componentType":5123,"count":6,"max":[299],"min":[296],"type":"SCALAR"},{"bufferView":20,"componentType":5123,"count":6,"max":[303],"min":[300],"type":"SCALAR"},{"bufferView":21,"componentType":5123,"count":6,"max":[307],"min":[304],"type":"SCALAR"},{"bufferView":22,"componentType":5123,"count":6,"max":[311],"min":[308],"type":"SCALAR"},{"bufferView":23,"componentType":5123,"count":30,"max":[331],"min":[312],"type":"SCALAR"},{"bufferView":24,"componentType":5123,"count":6,"max":[335],"min":[332],"type":"SCALAR"},{"bufferView":25,"componentType":5123,"count":6,"max":[339],"min":[336],"type":"SCALAR"},{"bufferView":26,"componentType":5123,"count":6,"max":[343],"min":[340],"type":"SCALAR"},{"bufferView":27,"componentType":5123,"count":6,"max":[347],"min":[344],"type":"SCALAR"},{"bufferView":28,"componentType":5123,"count":6,"max":[351],"min":[348],"type":"SCALAR"},{"bufferView":29,"componentType":5123,"count":30,"max":[371],"min":[352],"type":"SCALAR"},{"bufferView":30,"componentType":5123,"count":6,"max":[375],"min":[372],"type":"SCALAR"},{"bufferView":31,"componentType":5123,"count":6,"max":[379],"min":[376],"type":"SCALAR"},{"bufferView":32,"componentType":5123,"count":6,"max":[383],"min":[380],"type":"SCALAR"},{"bufferView":33,"componentType":5123,"count":6,"max":[387],"min":[384],"type":"SCALAR"},{"bufferView":34,"componentType":5123,"count":6,"max":[391],"min":[388],"type":"SCALAR"},{"bufferView":35,"componentType":5123,"count":114,"max":[467],"min":[392],"type":"SCALAR"},{"bufferView":36,"componentType":5123,"count":6,"max":[471],"min":[468],"type":"SCALAR"},{"bufferView":37,"componentType":5123,"count":6,"max":[475],"min":[472],"type":"SCALAR"},{"bufferView":38,"componentType":5123,"count":6,"max":[479],"min":[476],"type":"SCALAR"},{"bufferView":39,"componentType":5123,"count":96,"max":[543],"min":[480],"type":"SCALAR"},{"bufferView":40,"componentType":5123,"count":6,"max":[547],"min":[544],"type":"SCALAR"},{"bufferView":41,"componentType":5123,"count":6,"max":[551],"min":[548],"type":"SCALAR"},{"bufferView":42,"componentType":5123,"count":6,"max":[555],"min":[552],"type":"SCALAR"},{"bufferView":43,"componentType":5123,"count":96,"max":[619],"min":[556],"type":"SCALAR"},{"bufferView":44,"componentType":5123,"count":6,"max":[623],"min":[620],"type":"SCALAR"},{"bufferView":45,"componentType":5123,"count":6,"max":[627],"min":[624],"type":"SCALAR"},{"bufferView":46,"componentType":5123,"count":6,"max":[631],"min":[628],"type":"SCALAR"},{"bufferView":47,"componentType":5123,"count":168,"max":[743],"min":[632],"type":"SCALAR"},{"bufferView":48,"componentType":5123,"count":54,"max":[779],"min":[744],"type":"SCALAR"},{"bufferView":49,"componentType":5123,"count":6,"max":[783],"min":[780],"type":"SCALAR"},{"bufferView":50,"componentType":5123,"count":12,"max":[791],"min":[784],"type":"SCALAR"},{"bufferView":51,"componentType":5123,"count":6,"max":[795],"min":[792],"type":"SCALAR"},{"bufferView":52,"componentType":5123,"count":12,"max":[803],"min":[796],"type":"SCALAR"},{"bufferView":53,"componentType":5123,"count":6,"max":[807],"min":[804],"type":"SCALAR"},{"bufferView":54,"componentType":5123,"count":12,"max":[815],"min":[808],"type":"SCALAR"},{"bufferView":55,"componentType":5123,"count":6,"max":[819],"min":[816],"type":"SCALAR"},{"bufferView":56,"componentType":5123,"count":12,"max":[827],"min":[820],"type":"SCALAR"},{"bufferView":57,"componentType":5123,"count":18,"max":[839],"min":[828],"type":"SCALAR"},{"bufferView":58,"componentType":5123,"count":6,"max":[843],"min":[840],"type":"SCALAR"},{"bufferView":59,"componentType":5123,"count":18,"max":[855],"min":[844],"type":"SCALAR"},{"bufferView":60,"componentType":5123,"count":144,"max":[951],"min":[856],"type":"SCALAR"},{"bufferView":61,"componentType":5123,"count":48,"max":[983],"min":[952],"type":"SCALAR"},{"bufferView":62,"componentType":5123,"count":102,"max":[1051],"min":[984],"type":"SCALAR"},{"bufferView":63,"componentType":5123,"count":6,"max":[1055],"min":[1052],"type":"SCALAR"},{"bufferView":64,"componentType":5123,"count":6,"max":[1059],"min":[1056],"type":"SCALAR"},{"bufferView":65,"componentType":5123,"count":6,"max":[1063],"min":[1060],"type":"SCALAR"},{"bufferView":66,"componentType":5123,"count":6,"max":[1067],"min":[1064],"type":"SCALAR"},{"bufferView":67,"componentType":5123,"count":6,"max":[1071],"min":[1068],"type":"SCALAR"},{"bufferView":68,"componentType":5123,"count":30,"max":[1091],"min":[1072],"type":"SCALAR"},{"bufferView":69,"componentType":5123,"count":6,"max":[1095],"min":[1092],"type":"SCALAR"},{"bufferView":70,"componentType":5123,"count":6,"max":[1099],"min":[1096],"type":"SCALAR"},{"bufferView":71,"componentType":5123,"count":6,"max":[1103],"min":[1100],"type":"SCALAR"},{"bufferView":72,"componentType":5123,"count":6,"max":[1107],"min":[1104],"type":"SCALAR"},{"bufferView":73,"componentType":5123,"count":6,"max":[1111],"min":[1108],"type":"SCALAR"},{"bufferView":74,"componentType":5123,"count":30,"max":[1131],"min":[1112],"type":"SCALAR"},{"bufferView":75,"componentType":5123,"count":6,"max":[1135],"min":[1132],"type":"SCALAR"},{"bufferView":76,"componentType":5123,"count":6,"max":[1139],"min":[1136],"type":"SCALAR"},{"bufferView":77,"componentType":5123,"count":6,"max":[1143],"min":[1140],"type":"SCALAR"},{"bufferView":78,"componentType":5123,"count":6,"max":[1147],"min":[1144],"type":"SCALAR"},{"bufferView":79,"componentType":5123,"count":6,"max":[1151],"min":[1148],"type":"SCALAR"},{"bufferView":80,"componentType":5123,"count":102,"max":[1219],"min":[1152],"type":"SCALAR"},{"bufferView":81,"componentType":5123,"count":6,"max":[1223],"min":[1220],"type":"SCALAR"},{"bufferView":82,"componentType":5123,"count":18,"max":[1235],"min":[1224],"type":"SCALAR"},{"bufferView":83,"componentType":5123,"count":6,"max":[1239],"min":[1236],"type":"SCALAR"},{"bufferView":84,"componentType":5123,"count":84,"max":[1295],"min":[1240],"type":"SCALAR"},{"bufferView":85,"componentType":5123,"count":6,"max":[1299],"min":[1296],"type":"SCALAR"},{"bufferView":86,"componentType":5123,"count":18,"max":[1311],"min":[1300],"type":"SCALAR"},{"bufferView":87,"componentType":5123,"count":6,"max":[1315],"min":[1312],"type":"SCALAR"},{"bufferView":88,"componentType":5123,"count":84,"max":[1371],"min":[1316],"type":"SCALAR"},{"bufferView":89,"componentType":5123,"count":6,"max":[1375],"min":[1372],"type":"SCALAR"},{"bufferView":90,"componentType":5123,"count":18,"max":[1387],"min":[1376],"type":"SCALAR"},{"bufferView":91,"componentType":5123,"count":6,"max":[1391],"min":[1388],"type":"SCALAR"},{"bufferView":92,"componentType":5123,"count":360,"max":[1631],"min":[1392],"type":"SCALAR"},{"bufferView":93,"componentType":5123,"count":24,"max":[1647],"min":[1632],"type":"SCALAR"}],"materials":[{"pbrMetallicRoughness":{"metallicFactor":0,"roughnessFactor":1,"baseColorTexture":{"index":0}},"alphaMode":"MASK","alphaCutoff":0.05,"doubleSided":true},{"pbrMetallicRoughness":{"metallicFactor":0,"roughnessFactor":1,"baseColorTexture":{"index":1}},"alphaMode":"MASK","alphaCutoff":0.05,"doubleSided":true},{"pbrMetallicRoughness":{"metallicFactor":0,"roughnessFactor":1,"baseColorTexture":{"index":2}},"alphaMode":"MASK","alphaCutoff":0.05,"doubleSided":true},{"pbrMetallicRoughness":{"metallicFactor":0,"roughnessFactor":1,"baseColorTexture":{"index":3}},"alphaMode":"MASK","alphaCutoff":0.05,"doubleSided":true},{"pbrMetallicRoughness":{"metallicFactor":0,"roughnessFactor":1,"baseColorTexture":{"index":4}},"alphaMode":"MASK","alphaCutoff":0.05,"doubleSided":true}],"textures":[{"sampler":0,"source":0,"name":"bronze1.png"},{"sampler":1,"source":1,"name":"ewall1.png"},{"sampler":2,"source":2,"name":"pvdrksep.png"},{"sampler":3,"source":3,"name":"dr_mapwood.png"},{"sampler":4,"source":4,"name":"gl_red2.png"}],"samplers":[{"magFilter":9728,"minFilter":9728,"wrapS":33071,"wrapT":33071},{"magFilter":9728,"minFilter":9728,"wrapS":33071,"wrapT":33071},{"magFilter":9728,"minFilter":9728,"wrapS":33071,"wrapT":33071},{"magFilter":9728,"minFilter":9728,"wrapS":33071,"wrapT":33071},{"magFilter":9728,"minFilter":9728,"wrapS":33071,"wrapT":33071}],"images":[{"mimeType":"image/png","uri":"data:image/png;base64,"},{"mimeType":"image/png","uri":"data:image/png;base64,"},{"mimeType":"image/png","uri":"data:image/png;base64,"},{"mimeType":"image/png","uri":"data:image/png;base64,"},{"mimeType":"image/png","uri":"data:image/png;base64,"}],"meshes":[{"primitives":[{"mode":4,"attributes":{"POSITION":0,"NORMAL":1,"TEXCOORD_0":2},"indices":3,"material":0},{"mode":4,"attributes":{"POSITION":0,"NORMAL":1,"TEXCOORD_0":2},"indices":4,"material":1},{"mode":4,"attributes":{"POSITION":0,"NORMAL":1,"TEXCOORD_0":2},"indices":5,"material":2},{"mode":4,"attributes":{"POSITION":0,"NORMAL":1,"TEXCOORD_0":2},"indices":6,"material":0},{"mode":4,"attributes":{"POSITION":0,"NORMAL":1,"TEXCOORD_0":2},"indices":7,"material":2},{"mode":4,"attributes":{"POSITION":0,"NORMAL":1,"TEXCOORD_0":2},"indices":8,"material":0},{"mode":4,"attributes":{"POSITION":0,"NORMAL":1,"TEXCOORD_0":2},"indices":9,"material":2},{"mode":4,"attributes":{"POSITION":0,"NORMAL":1,"TEXCOORD_0":2},"indices":10,"material":0},{"mode":4,"attributes":{"POSITION":0,"NORMAL":1,"TEXCOORD_0":2},"indices":11,"material":2},{"mode":4,"attributes":{"POSITION":0,"NORMAL":1,"TEXCOORD_0":2},"indices":12,"material":0},{"mode":4,"attributes":{"POSITION":0,"NORMAL":1,"TEXCOORD_0":2},"indices":13,"material":1},{"mode":4,"attributes":{"POSITION":0,"NORMAL":1,"TEXCOORD_0":2},"indices":14,"material":0},{"mode":4,"attributes":{"POSITION":0,"NORMAL":1,"TEXCOORD_0":2},"indices":15,"material":1},{"mode":4,"attributes":{"POSITION":0,"NORMAL":1,"TEXCOORD_0":2},"indices":16,"material":0},{"mode":4,"attributes":{"POSITION":0,"NORMAL":1,"TEXCOORD_0":2},"indices":17,"material":1},{"mode":4,"attributes":{"POSITION":0,"NORMAL":1,"TEXCOORD_0":2},"indices":18,"material":3},{"mode":4,"attributes":{"POSITION":0,"NORMAL":1,"TEXCOORD_0":2},"indices":19,"material":1},{"mode":4,"attributes":{"POSITION":0,"NORMAL":1,"TEXCOORD_0":2},"indices":20,"material":3},{"mode":4,"attributes":{"POSITION":0,"NORMAL":1,"TEXCOORD_0":2},"indices":21,"material":1},{"mode":4,"attributes":{"POSITION":0,"NORMAL":1,"TEXCOORD_0":2},"indices":22,"material":4},{"mode":4,"attributes":{"POSITION":0,"NORMAL":1,"TEXCOORD_0":2},"indices":23,"material":1},{"mode":4,"attributes":{"POSITION":0,"NORMAL":1,"TEXCOORD_0":2},"indices":24,"material":3},{"mode":4,"attributes":{"POSITION":0,"NORMAL":1,"TEXCOORD_0":2},"indices":25,"material":1},{"mode":4,"attributes":{"POSITION":0,"NORMAL":1,"TEXCOORD_0":2},"indices":26,"material":3},{"mode":4,"attributes":{"POSITION":0,"NORMAL":1,"TEXCOORD_0":2},"indices":27,"material":1},{"mode":4,"attributes":{"POSITION":0,"NORMAL":1,"TEXCOORD_0":2},"indices":28,"material":4},{"mode":4,"attributes":{"POSITION":0,"NORMAL":1,"TEXCOORD_0":2},"indices":29,"material":1},{"mode":4,"attributes":{"POSITION":0,"NORMAL":1,"TEXCOORD_0":2},"indices":30,"material":3},{"mode":4,"attributes":{"POSITION":0,"NORMAL":1,"TEXCOORD_0":2},"indices":31,"material":1},{"mode":4,"attributes":{"POSITION":0,"NORMAL":1,"TEXCOORD_0":2},"indices":32,"material":3},{"mode":4,"attributes":{"POSITION":0,"NORMAL":1,"TEXCOORD_0":2},"indices":33,"material":1},{"mode":4,"attributes":{"POSITION":0,"NORMAL":1,"TEXCOORD_0":2},"indices":34,"material":4},{"mode":4,"attributes":{"POSITION":0,"NORMAL":1,"TEXCOORD_0":2},"indices":35,"material":1},{"mode":4,"attributes":{"POSITION":0,"NORMAL":1,"TEXCOORD_0":2},"indices":36,"material":4},{"mode":4,"attributes":{"POSITION":0,"NORMAL":1,"TEXCOORD_0":2},"indices":37,"material":1},{"mode":4,"attributes":{"POSITION":0,"NORMAL":1,"TEXCOORD_0":2},"indices":38,"material":4},{"mode":4,"attributes":{"POSITION":0,"NORMAL":1,"TEXCOORD_0":2},"indices":39,"material":1},{"mode":4,"attributes":{"POSITION":0,"NORMAL":1,"TEXCOORD_0":2},"indices":40,"material":4},{"mode":4,"attributes":{"POSITION":0,"NORMAL":1,"TEXCOORD_0":2},"indices":41,"material":1},{"mode":4,"attributes":{"POSITION":0,"NORMAL":1,"TEXCOORD_0":2},"indices":42,"material":4},{"mode":4,"attributes":{"POSITION":0,"NORMAL":1,"TEXCOORD_0":2},"indices":43,"material":1},{"mode":4,"attributes":{"POSITION":0,"NORMAL":1,"TEXCOORD_0":2},"indices":44,"material":4},{"mode":4,"attributes":{"POSITION":0,"NORMAL":1,"TEXCOORD_0":2},"indices":45,"material":1},{"mode":4,"attributes":{"POSITION":0,"NORMAL":1,"TEXCOORD_0":2},"indices":46,"material":4},{"mode":4,"attributes":{"POSITION":0,"NORMAL":1,"TEXCOORD_0":2},"indices":47,"material":1},{"mode":4,"attributes":{"POSITION":0,"NORMAL":1,"TEXCOORD_0":2},"indices":48,"material":0},{"mode":4,"attributes":{"POSITION":0,"NORMAL":1,"TEXCOORD_0":2},"indices":49,"material":1},{"mode":4,"attributes":{"POSITION":0,"NORMAL":1,"TEXCOORD_0":2},"indices":50,"material":2},{"mode":4,"attributes":{"POSITION":0,"NORMAL":1,"TEXCOORD_0":2},"indices":51,"material":0},{"mode":4,"attributes":{"POSITION":0,"NORMAL":1,"TEXCOORD_0":2},"indices":52,"material":2},{"mode":4,"attributes":{"POSITION":0,"NORMAL":1,"TEXCOORD_0":2},"indices":53,"material":0},{"mode":4,"attributes":{"POSITION":0,"NORMAL":1,"TEXCOORD_0":2},"indices":54,"material":2},{"mode":4,"attributes":{"POSITION":0,"NORMAL":1,"TEXCOORD_0":2},"indices":55,"material":0},{"mode":4,"attributes":{"POSITION":0,"NORMAL":1,"TEXCOORD_0":2},"indices":56,"material":2},{"mode":4,"attributes":{"POSITION":0,"NORMAL":1,"TEXCOORD_0":2},"indices":57,"material":0},{"mode":4,"attributes":{"POSITION":0,"NORMAL":1,"TEXCOORD_0":2},"indices":58,"material":1},{"mode":4,"attributes":{"POSITION":0,"NORMAL":1,"TEXCOORD_0":2},"indices":59,"material":0},{"mode":4,"attributes":{"POSITION":0,"NORMAL":1,"TEXCOORD_0":2},"indices":60,"material":1},{"mode":4,"attributes":{"POSITION":0,"NORMAL":1,"TEXCOORD_0":2},"indices":61,"material":0},{"mode":4,"attributes":{"POSITION":0,"NORMAL":1,"TEXCOORD_0":2},"indices":62,"material":1},{"mode":4,"attributes":{"POSITION":0,"NORMAL":1,"TEXCOORD_0":2},"indices":63,"material":3},{"mode":4,"attributes":{"POSITION":0,"NORMAL":1,"TEXCOORD_0":2},"indices":64,"material":1},{"mode":4,"attributes":{"POSITION":0,"NORMAL":1,"TEXCOORD_0":2},"indices":65,"material":3},{"mode":4,"attributes":{"POSITION":0,"NORMAL":1,"TEXCOORD_0":2},"indices":66,"material":1},{"mode":4,"attributes":{"POSITION":0,"NORMAL":1,"TEXCOORD_0":2},"indices":67,"material":4},{"mode":4,"attributes":{"POSITION":0,"NORMAL":1,"TEXCOORD_0":2},"indices":68,"material":1},{"mode":4,"attributes":{"POSITION":0,"NORMAL":1,"TEXCOORD_0":2},"indices":69,"material":3},{"mode":4,"attributes":{"POSITION":0,"NORMAL":1,"TEXCOORD_0":2},"indices":70,"material":1},{"mode":4,"attributes":{"POSITION":0,"NORMAL":1,"TEXCOORD_0":2},"indices":71,"material":3},{"mode":4,"attributes":{"POSITION":0,"NORMAL":1,"TEXCOORD_0":2},"indices":72,"material":1},{"mode":4,"attributes":{"POSITION":0,"NORMAL":1,"TEXCOORD_0":2},"indices":73,"material":4},{"mode":4,"attributes":{"POSITION":0,"NORMAL":1,"TEXCOORD_0":2},"indices":74,"material":1},{"mode":4,"attributes":{"POSITION":0,"NORMAL":1,"TEXCOORD_0":2},"indices":75,"material":3},{"mode":4,"attributes":{"POSITION":0,"NORMAL":1,"TEXCOORD_0":2},"indices":76,"material":1},{"mode":4,"attributes":{"POSITION":0,"NORMAL":1,"TEXCOORD_0":2},"indices":77,"material":3},{"mode":4,"attributes":{"POSITION":0,"NORMAL":1,"TEXCOORD_0":2},"indices":78,"material":1},{"mode":4,"attributes":{"POSITION":0,"NORMAL":1,"TEXCOORD_0":2},"indices":79,"material":4},{"mode":4,"attributes":{"POSITION":0,"NORMAL":1,"TEXCOORD_0":2},"indices":80,"material":1},{"mode":4,"attributes":{"POSITION":0,"NORMAL":1,"TEXCOORD_0":2},"indices":81,"material":4},{"mode":4,"attributes":{"POSITION":0,"NORMAL":1,"TEXCOORD_0":2},"indices":82,"material":1},{"mode":4,"attributes":{"POSITION":0,"NORMAL":1,"TEXCOORD_0":2},"indices":83,"material":4},{"mode":4,"attributes":{"POSITION":0,"NORMAL":1,"TEXCOORD_0":2},"indices":84,"material":1},{"mode":4,"attributes":{"POSITION":0,"NORMAL":1,"TEXCOORD_0":2},"indices":85,"material":4},{"mode":4,"attributes":{"POSITION":0,"NORMAL":1,"TEXCOORD_0":2},"indices":86,"material":1},{"mode":4,"attributes":{"POSITION":0,"NORMAL":1,"TEXCOORD_0":2},"indices":87,"material":4},{"mode":4,"attributes":{"POSITION":0,"NORMAL":1,"TEXCOORD_0":2},"indices":88,"material":1},{"mode":4,"attributes":{"POSITION":0,"NORMAL":1,"TEXCOORD_0":2},"indices":89,"material":4},{"mode":4,"attributes":{"POSITION":0,"NORMAL":1,"TEXCOORD_0":2},"indices":90,"material":1},{"mode":4,"attributes":{"POSITION":0,"NORMAL":1,"TEXCOORD_0":2},"indices":91,"material":4},{"mode":4,"attributes":{"POSITION":0,"NORMAL":1,"TEXCOORD_0":2},"indices":92,"material":1},{"mode":4,"attributes":{"POSITION":0,"NORMAL":1,"TEXCOORD_0":2},"indices":93,"material":0}]}]}